<?xml version="1.0" encoding="UTF-8"?> <svg xmlns="http://www.w3.org/2000/svg" width="116" height="32" viewBox="0 0 116 32" fill="none"> <rect x="0.25" y="0.25" width="115.5" height="31.5" rx="15.75" stroke="url(#paint0_linear_177_1311)" stroke-width="0.5"></rect> <path d="M13.8119 22V10.3636H17.8801C18.6907 10.3636 19.3593 10.5038 19.8858 10.7841C20.4123 11.0606 20.8043 11.4337 21.0619 11.9034C21.3195 12.3693 21.4483 12.8864 21.4483 13.4545C21.4483 13.9545 21.3593 14.3674 21.1812 14.6932C21.007 15.0189 20.7759 15.2765 20.488 15.4659C20.2039 15.6553 19.8952 15.7955 19.5619 15.8864V16C19.918 16.0227 20.2759 16.1477 20.6358 16.375C20.9956 16.6023 21.2968 16.928 21.5392 17.3523C21.7816 17.7765 21.9028 18.2955 21.9028 18.9091C21.9028 19.4924 21.7702 20.017 21.5051 20.483C21.2399 20.9489 20.8214 21.3182 20.2494 21.5909C19.6774 21.8636 18.9331 22 18.0164 22H13.8119ZM15.221 20.75H18.0164C18.9369 20.75 19.5903 20.572 19.9767 20.2159C20.3668 19.8561 20.5619 19.4205 20.5619 18.9091C20.5619 18.5152 20.4615 18.1515 20.2608 17.8182C20.06 17.4811 19.774 17.2121 19.4028 17.0114C19.0316 16.8068 18.5922 16.7045 18.0846 16.7045H15.221V20.75ZM15.221 15.4773H17.8346C18.2589 15.4773 18.6414 15.3939 18.9824 15.2273C19.3271 15.0606 19.5998 14.8258 19.8005 14.5227C20.0051 14.2197 20.1074 13.8636 20.1074 13.4545C20.1074 12.9432 19.9293 12.5095 19.5733 12.1534C19.2172 11.7936 18.6528 11.6136 17.8801 11.6136H15.221V15.4773ZM23.3963 22V13.2727H24.6918V14.5909H24.7827C24.9418 14.1591 25.2297 13.8087 25.6463 13.5398C26.063 13.2708 26.5327 13.1364 27.0554 13.1364C27.1539 13.1364 27.277 13.1383 27.4247 13.142C27.5725 13.1458 27.6842 13.1515 27.76 13.1591V14.5227C27.7145 14.5114 27.6104 14.4943 27.4475 14.4716C27.2884 14.4451 27.1198 14.4318 26.9418 14.4318C26.5175 14.4318 26.1388 14.5208 25.8054 14.6989C25.4759 14.8731 25.2145 15.1155 25.0213 15.4261C24.8319 15.733 24.7372 16.0833 24.7372 16.4773V22H23.3963ZM31.2776 22.2045C30.7246 22.2045 30.2227 22.1004 29.772 21.892C29.3212 21.6799 28.9632 21.375 28.6981 20.9773C28.4329 20.5758 28.3004 20.0909 28.3004 19.5227C28.3004 19.0227 28.3989 18.6174 28.5958 18.3068C28.7928 17.9924 29.0561 17.7462 29.3856 17.5682C29.7151 17.3902 30.0788 17.2576 30.4765 17.1705C30.878 17.0795 31.2814 17.0076 31.6867 16.9545C32.217 16.8864 32.647 16.8352 32.9765 16.8011C33.3098 16.7633 33.5523 16.7008 33.7038 16.6136C33.8591 16.5265 33.9367 16.375 33.9367 16.1591V16.1136C33.9367 15.553 33.7833 15.1174 33.4765 14.8068C33.1735 14.4962 32.7132 14.3409 32.0958 14.3409C31.4557 14.3409 30.9538 14.4811 30.5901 14.7614C30.2265 15.0417 29.9708 15.3409 29.8231 15.6591L28.5504 15.2045C28.7776 14.6742 29.0807 14.2614 29.4595 13.9659C29.842 13.6667 30.2587 13.4583 30.7095 13.3409C31.164 13.2197 31.611 13.1591 32.0504 13.1591C32.3307 13.1591 32.6526 13.1932 33.0163 13.2614C33.3837 13.3258 33.7379 13.4602 34.0788 13.6648C34.4235 13.8693 34.7095 14.178 34.9367 14.5909C35.164 15.0038 35.2776 15.5568 35.2776 16.25V22H33.9367V20.8182H33.8686C33.7776 21.0076 33.6261 21.2102 33.414 21.4261C33.2019 21.642 32.9197 21.8258 32.5674 21.9773C32.2151 22.1288 31.7852 22.2045 31.2776 22.2045ZM31.4822 21C32.0125 21 32.4595 20.8958 32.8231 20.6875C33.1905 20.4792 33.467 20.2102 33.6526 19.8807C33.842 19.5511 33.9367 19.2045 33.9367 18.8409V17.6136C33.8799 17.6818 33.7549 17.7443 33.5617 17.8011C33.3723 17.8542 33.1526 17.9015 32.9026 17.9432C32.6564 17.9811 32.4159 18.0152 32.1811 18.0455C31.95 18.072 31.7625 18.0947 31.6186 18.1136C31.2701 18.1591 30.9443 18.233 30.6413 18.3352C30.342 18.4337 30.0996 18.5833 29.914 18.7841C29.7322 18.9811 29.6413 19.25 29.6413 19.5909C29.6413 20.0568 29.8136 20.4091 30.1583 20.6477C30.5068 20.8826 30.9481 21 31.4822 21ZM38.426 16.75V22H37.0851V13.2727H38.3805V14.6364H38.4942C38.6987 14.1932 39.0093 13.8371 39.426 13.5682C39.8427 13.2955 40.3805 13.1591 41.0396 13.1591C41.6305 13.1591 42.1476 13.2803 42.5908 13.5227C43.0339 13.7614 43.3786 14.125 43.6249 14.6136C43.8711 15.0985 43.9942 15.7121 43.9942 16.4545V22H42.6533V16.5455C42.6533 15.8598 42.4752 15.3258 42.1192 14.9432C41.7631 14.5568 41.2745 14.3636 40.6533 14.3636C40.2252 14.3636 39.8427 14.4564 39.5055 14.642C39.1722 14.8277 38.9089 15.0985 38.7158 15.4545C38.5226 15.8106 38.426 16.2424 38.426 16.75ZM49.0999 22.1818C48.3726 22.1818 47.7306 21.9981 47.1738 21.6307C46.617 21.2595 46.1814 20.7367 45.867 20.0625C45.5526 19.3845 45.3954 18.5833 45.3954 17.6591C45.3954 16.7424 45.5526 15.947 45.867 15.2727C46.1814 14.5985 46.6189 14.0777 47.1795 13.7102C47.7401 13.3428 48.3878 13.1591 49.1226 13.1591C49.6908 13.1591 50.1397 13.2538 50.4692 13.4432C50.8026 13.6288 51.0564 13.8409 51.2306 14.0795C51.4086 14.3144 51.5469 14.5076 51.6454 14.6591H51.759V10.3636H53.0999V22H51.8045V20.6591H51.6454C51.5469 20.8182 51.4067 21.0189 51.2249 21.2614C51.0431 21.5 50.7836 21.714 50.4465 21.9034C50.1094 22.089 49.6605 22.1818 49.0999 22.1818ZM49.2817 20.9773C49.8196 20.9773 50.2742 20.8371 50.6454 20.5568C51.0166 20.2727 51.2988 19.8807 51.492 19.3807C51.6851 18.8769 51.7817 18.2955 51.7817 17.6364C51.7817 16.9848 51.687 16.4148 51.4976 15.9261C51.3082 15.4337 51.0279 15.0511 50.6567 14.7784C50.2855 14.5019 49.8272 14.3636 49.2817 14.3636C48.7136 14.3636 48.2401 14.5095 47.8613 14.8011C47.4863 15.089 47.2041 15.4811 47.0147 15.9773C46.8291 16.4697 46.7363 17.0227 46.7363 17.6364C46.7363 18.2576 46.831 18.822 47.0204 19.3295C47.2136 19.8333 47.4976 20.2348 47.8726 20.5341C48.2514 20.8295 48.7211 20.9773 49.2817 20.9773ZM61.5301 22.2045C60.9771 22.2045 60.4752 22.1004 60.0245 21.892C59.5737 21.6799 59.2157 21.375 58.9506 20.9773C58.6854 20.5758 58.5529 20.0909 58.5529 19.5227C58.5529 19.0227 58.6514 18.6174 58.8483 18.3068C59.0453 17.9924 59.3086 17.7462 59.6381 17.5682C59.9676 17.3902 60.3313 17.2576 60.729 17.1705C61.1305 17.0795 61.5339 17.0076 61.9392 16.9545C62.4695 16.8864 62.8995 16.8352 63.229 16.8011C63.5623 16.7633 63.8048 16.7008 63.9563 16.6136C64.1116 16.5265 64.1892 16.375 64.1892 16.1591V16.1136C64.1892 15.553 64.0358 15.1174 63.729 14.8068C63.426 14.4962 62.9657 14.3409 62.3483 14.3409C61.7082 14.3409 61.2063 14.4811 60.8426 14.7614C60.479 15.0417 60.2233 15.3409 60.0756 15.6591L58.8029 15.2045C59.0301 14.6742 59.3332 14.2614 59.712 13.9659C60.0945 13.6667 60.5112 13.4583 60.962 13.3409C61.4165 13.2197 61.8635 13.1591 62.3029 13.1591C62.5832 13.1591 62.9051 13.1932 63.2688 13.2614C63.6362 13.3258 63.9904 13.4602 64.3313 13.6648C64.676 13.8693 64.962 14.178 65.1892 14.5909C65.4165 15.0038 65.5301 15.5568 65.5301 16.25V22H64.1892V20.8182H64.1211C64.0301 21.0076 63.8786 21.2102 63.6665 21.4261C63.4544 21.642 63.1722 21.8258 62.8199 21.9773C62.4676 22.1288 62.0377 22.2045 61.5301 22.2045ZM61.7347 21C62.265 21 62.712 20.8958 63.0756 20.6875C63.443 20.4792 63.7195 20.2102 63.9051 19.8807C64.0945 19.5511 64.1892 19.2045 64.1892 18.8409V17.6136C64.1324 17.6818 64.0074 17.7443 63.8142 17.8011C63.6248 17.8542 63.4051 17.9015 63.1551 17.9432C62.9089 17.9811 62.6684 18.0152 62.4336 18.0455C62.2025 18.072 62.015 18.0947 61.8711 18.1136C61.5226 18.1591 61.1968 18.233 60.8938 18.3352C60.5945 18.4337 60.3521 18.5833 60.1665 18.7841C59.9847 18.9811 59.8938 19.25 59.8938 19.5909C59.8938 20.0568 60.0661 20.4091 60.4108 20.6477C60.7593 20.8826 61.2006 21 61.7347 21ZM73.5194 15.2273L72.3149 15.5682C72.2391 15.3674 72.1274 15.1723 71.9796 14.983C71.8357 14.7898 71.6387 14.6307 71.3887 14.5057C71.1387 14.3807 70.8186 14.3182 70.4285 14.3182C69.8944 14.3182 69.4493 14.4413 69.0933 14.6875C68.741 14.9299 68.5649 15.2386 68.5649 15.6136C68.5649 15.947 68.6861 16.2102 68.9285 16.4034C69.1709 16.5966 69.5497 16.7576 70.0649 16.8864L71.3603 17.2045C72.1406 17.3939 72.7221 17.6837 73.1046 18.0739C73.4872 18.4602 73.6785 18.9583 73.6785 19.5682C73.6785 20.0682 73.5346 20.5152 73.2467 20.9091C72.9626 21.303 72.5649 21.6136 72.0535 21.8409C71.5421 22.0682 70.9474 22.1818 70.2694 22.1818C69.3793 22.1818 68.6425 21.9886 68.0592 21.6023C67.4758 21.2159 67.1065 20.6515 66.9512 19.9091L68.2239 19.5909C68.3452 20.0606 68.5743 20.4129 68.9114 20.6477C69.2524 20.8826 69.6974 21 70.2467 21C70.8717 21 71.3679 20.8674 71.7353 20.6023C72.1065 20.3333 72.2921 20.0114 72.2921 19.6364C72.2921 19.3333 72.1861 19.0795 71.9739 18.875C71.7618 18.6667 71.4361 18.5114 70.9967 18.4091L69.5421 18.0682C68.7429 17.8788 68.1558 17.5852 67.7808 17.1875C67.4096 16.786 67.2239 16.2841 67.2239 15.6818C67.2239 15.1894 67.3622 14.7538 67.6387 14.375C67.919 13.9962 68.2997 13.6989 68.7808 13.483C69.2656 13.267 69.8149 13.1591 70.4285 13.1591C71.2921 13.1591 71.9702 13.3485 72.4626 13.7273C72.9588 14.1061 73.3111 14.6061 73.5194 15.2273ZM81.2388 15.2273L80.0342 15.5682C79.9585 15.3674 79.8467 15.1723 79.699 14.983C79.5551 14.7898 79.3581 14.6307 79.1081 14.5057C78.8581 14.3807 78.538 14.3182 78.1479 14.3182C77.6138 14.3182 77.1687 14.4413 76.8126 14.6875C76.4604 14.9299 76.2842 15.2386 76.2842 15.6136C76.2842 15.947 76.4054 16.2102 76.6479 16.4034C76.8903 16.5966 77.2691 16.7576 77.7842 16.8864L79.0797 17.2045C79.86 17.3939 80.4414 17.6837 80.824 18.0739C81.2066 18.4602 81.3979 18.9583 81.3979 19.5682C81.3979 20.0682 81.2539 20.5152 80.9661 20.9091C80.682 21.303 80.2842 21.6136 79.7729 21.8409C79.2615 22.0682 78.6668 22.1818 77.9888 22.1818C77.0986 22.1818 76.3619 21.9886 75.7786 21.6023C75.1952 21.2159 74.8259 20.6515 74.6706 19.9091L75.9433 19.5909C76.0645 20.0606 76.2937 20.4129 76.6308 20.6477C76.9717 20.8826 77.4168 21 77.9661 21C78.5911 21 79.0873 20.8674 79.4547 20.6023C79.8259 20.3333 80.0115 20.0114 80.0115 19.6364C80.0115 19.3333 79.9054 19.0795 79.6933 18.875C79.4812 18.6667 79.1554 18.5114 78.7161 18.4091L77.2615 18.0682C76.4623 17.8788 75.8751 17.5852 75.5001 17.1875C75.1289 16.786 74.9433 16.2841 74.9433 15.6818C74.9433 15.1894 75.0816 14.7538 75.3581 14.375C75.6384 13.9962 76.0191 13.6989 76.5001 13.483C76.985 13.267 77.5342 13.1591 78.1479 13.1591C79.0115 13.1591 79.6895 13.3485 80.182 13.7273C80.6782 14.1061 81.0304 14.6061 81.2388 15.2273ZM86.4354 22.1818C85.5945 22.1818 84.8691 21.9962 84.2593 21.625C83.6532 21.25 83.1854 20.7273 82.8559 20.0568C82.5301 19.3826 82.3672 18.5985 82.3672 17.7045C82.3672 16.8106 82.5301 16.0227 82.8559 15.3409C83.1854 14.6553 83.6438 14.1212 84.2309 13.7386C84.8218 13.3523 85.5112 13.1591 86.2991 13.1591C86.7536 13.1591 87.2025 13.2348 87.6456 13.3864C88.0888 13.5379 88.4922 13.7841 88.8559 14.125C89.2195 14.4621 89.5093 14.9091 89.7252 15.4659C89.9411 16.0227 90.0491 16.7083 90.0491 17.5227V18.0909H83.3218V16.9318H88.6854C88.6854 16.4394 88.5869 16 88.39 15.6136C88.1968 15.2273 87.9203 14.9223 87.5604 14.6989C87.2044 14.4754 86.7839 14.3636 86.2991 14.3636C85.765 14.3636 85.3028 14.4962 84.9127 14.7614C84.5263 15.0227 84.229 15.3636 84.0206 15.7841C83.8123 16.2045 83.7081 16.6553 83.7081 17.1364V17.9091C83.7081 18.5682 83.8218 19.1269 84.0491 19.5852C84.2801 20.0398 84.6002 20.3864 85.0093 20.625C85.4184 20.8598 85.8938 20.9773 86.4354 20.9773C86.7877 20.9773 87.1059 20.928 87.39 20.8295C87.6778 20.7273 87.926 20.5758 88.1343 20.375C88.3426 20.1705 88.5036 19.9167 88.6172 19.6136L89.9127 19.9773C89.7763 20.4167 89.5472 20.803 89.2252 21.1364C88.9032 21.4659 88.5055 21.7235 88.032 21.9091C87.5585 22.0909 87.0263 22.1818 86.4354 22.1818ZM95.2443 13.2727V14.4091H90.7216V13.2727H95.2443ZM92.0397 11.1818H93.3806V19.5C93.3806 19.8788 93.4356 20.1629 93.5454 20.3523C93.6591 20.5379 93.803 20.6629 93.9772 20.7273C94.1553 20.7879 94.3428 20.8182 94.5397 20.8182C94.6875 20.8182 94.8087 20.8106 94.9034 20.7955C94.9981 20.7765 95.0738 20.7614 95.1306 20.75L95.4034 21.9545C95.3125 21.9886 95.1856 22.0227 95.0227 22.0568C94.8598 22.0947 94.6534 22.1136 94.4034 22.1136C94.0246 22.1136 93.6534 22.0322 93.2897 21.8693C92.9299 21.7064 92.6306 21.4583 92.392 21.125C92.1572 20.7917 92.0397 20.3712 92.0397 19.8636V11.1818ZM102.647 15.2273L101.442 15.5682C101.367 15.3674 101.255 15.1723 101.107 14.983C100.963 14.7898 100.766 14.6307 100.516 14.5057C100.266 14.3807 99.9461 14.3182 99.556 14.3182C99.0219 14.3182 98.5768 14.4413 98.2208 14.6875C97.8685 14.9299 97.6924 15.2386 97.6924 15.6136C97.6924 15.947 97.8136 16.2102 98.056 16.4034C98.2984 16.5966 98.6772 16.7576 99.1924 16.8864L100.488 17.2045C101.268 17.3939 101.85 17.6837 102.232 18.0739C102.615 18.4602 102.806 18.9583 102.806 19.5682C102.806 20.0682 102.662 20.5152 102.374 20.9091C102.09 21.303 101.692 21.6136 101.181 21.8409C100.67 22.0682 100.075 22.1818 99.3969 22.1818C98.5067 22.1818 97.77 21.9886 97.1867 21.6023C96.6033 21.2159 96.234 20.6515 96.0787 19.9091L97.3514 19.5909C97.4727 20.0606 97.7018 20.4129 98.0389 20.6477C98.3799 20.8826 98.8249 21 99.3742 21C99.9992 21 100.495 20.8674 100.863 20.6023C101.234 20.3333 101.42 20.0114 101.42 19.6364C101.42 19.3333 101.314 19.0795 101.101 18.875C100.889 18.6667 100.564 18.5114 100.124 18.4091L98.6696 18.0682C97.8704 17.8788 97.2833 17.5852 96.9083 17.1875C96.5371 16.786 96.3514 16.2841 96.3514 15.6818C96.3514 15.1894 96.4897 14.7538 96.7662 14.375C97.0465 13.9962 97.4272 13.6989 97.9083 13.483C98.3931 13.267 98.9424 13.1591 99.556 13.1591C100.42 13.1591 101.098 13.3485 101.59 13.7273C102.086 14.1061 102.439 14.6061 102.647 15.2273Z" fill="url(#paint1_linear_177_1311)"></path> <defs> <linearGradient id="paint0_linear_177_1311" x1="11.7744" y1="-15.1111" x2="9.76772" y2="54.6118" gradientUnits="userSpaceOnUse"> <stop stop-color="#D7D1FF"></stop> <stop offset="1" stop-color="#866DCD"></stop> </linearGradient> <linearGradient id="paint1_linear_177_1311" x1="12" y1="-5.99997" x2="113.091" y2="-2.12386" gradientUnits="userSpaceOnUse"> <stop stop-color="#E8E2FF"></stop> <stop offset="0.345" stop-color="#F3F2FF"></stop> <stop offset="1" stop-color="#E1C3FF"></stop> </linearGradient> </defs> </svg> 