<?xml version="1.0" encoding="UTF-8"?> <svg xmlns="http://www.w3.org/2000/svg" width="697" height="404" viewBox="0 0 697 404" fill="none"> <path d="M37.5789 1H1V37.5454M37.5789 1H74.1579M37.5789 1V37.5454M74.1579 1H110.737M74.1579 1V37.5454M110.737 1H147.316M110.737 1V37.5454M147.316 1H183.895M147.316 1V37.5454M183.895 1H220.474M183.895 1V37.5454M220.474 1H257.053M220.474 1V37.5454M257.053 1H293.632M257.053 1V37.5454M293.632 1H330.211M293.632 1V37.5454M330.211 1H366.789M330.211 1V37.5454M366.789 1H403.368M366.789 1V37.5454M403.368 1H439.947M403.368 1V37.5454M439.947 1H476.526M439.947 1V37.5454M476.526 1H513.105M476.526 1V37.5454M513.105 1H549.684M513.105 1V37.5454M549.684 1H586.263M549.684 1V37.5454M586.263 1H622.842M586.263 1V37.5454M622.842 1V37.5454M622.842 1H659.421M37.5789 37.5454H1M37.5789 37.5454H74.1579M37.5789 37.5454V74.0909M1 37.5454V74.0909M74.1579 37.5454H110.737M74.1579 37.5454V74.0909M110.737 37.5454H147.316M110.737 37.5454V74.0909M147.316 37.5454H183.895M147.316 37.5454V74.0909M183.895 37.5454H220.474M183.895 37.5454V74.0909M220.474 37.5454H257.053M220.474 37.5454V74.0909M257.053 37.5454H293.632M257.053 37.5454V74.0909M293.632 37.5454H330.211M293.632 37.5454V74.0909M330.211 37.5454H366.789M330.211 37.5454V74.0909M366.789 37.5454H403.368M366.789 37.5454V74.0909M403.368 37.5454H439.947M403.368 37.5454V74.0909M439.947 37.5454H476.526M439.947 37.5454V74.0909M476.526 37.5454H513.105M476.526 37.5454V74.0909M513.105 37.5454H549.684M513.105 37.5454V74.0909M549.684 37.5454H586.263M549.684 37.5454V74.0909M586.263 37.5454H622.842M586.263 37.5454V74.0909M622.842 37.5454V74.0909M622.842 37.5454H659.421M37.5789 74.0909H1M37.5789 74.0909H74.1579M37.5789 74.0909V110.636M1 74.0909V110.636M74.1579 74.0909H110.737M74.1579 74.0909V110.636M110.737 74.0909H147.316M110.737 74.0909V110.636M147.316 74.0909H183.895M147.316 74.0909V110.636M183.895 74.0909H220.474M183.895 74.0909V110.636M220.474 74.0909H257.053M220.474 74.0909V110.636M257.053 74.0909H293.632M257.053 74.0909V110.636M293.632 74.0909H330.211M293.632 74.0909V110.636M330.211 74.0909H366.789M330.211 74.0909V110.636M366.789 74.0909H403.368M366.789 74.0909V110.636M403.368 74.0909H439.947M403.368 74.0909V110.636M439.947 74.0909H476.526M439.947 74.0909V110.636M476.526 74.0909H513.105M476.526 74.0909V110.636M513.105 74.0909H549.684M513.105 74.0909V110.636M549.684 74.0909H586.263M549.684 74.0909V110.636M586.263 74.0909H622.842M586.263 74.0909V110.636M622.842 74.0909V110.636M622.842 74.0909H659.421M37.5789 110.636H1M37.5789 110.636H74.1579M37.5789 110.636V147.182M1 110.636V147.182M74.1579 110.636H110.737M74.1579 110.636V147.182M110.737 110.636H147.316M110.737 110.636V147.182M147.316 110.636H183.895M147.316 110.636V147.182M183.895 110.636H220.474M183.895 110.636V147.182M220.474 110.636H257.053M220.474 110.636V147.182M257.053 110.636H293.632M257.053 110.636V147.182M293.632 110.636H330.211M293.632 110.636V147.182M330.211 110.636H366.789M330.211 110.636V147.182M366.789 110.636H403.368M366.789 110.636V147.182M403.368 110.636H439.947M403.368 110.636V147.182M439.947 110.636H476.526M439.947 110.636V147.182M476.526 110.636H513.105M476.526 110.636V147.182M513.105 110.636H549.684M513.105 110.636V147.182M549.684 110.636H586.263M549.684 110.636V147.182M586.263 110.636H622.842M586.263 110.636V147.182M622.842 110.636V147.182M622.842 110.636H659.421M37.5789 147.182H1M37.5789 147.182H74.1579M37.5789 147.182V183.727M1 147.182V183.727M74.1579 147.182H110.737M74.1579 147.182V183.727M110.737 147.182H147.316M110.737 147.182V183.727M147.316 147.182H183.895M147.316 147.182V183.727M183.895 147.182H220.474M183.895 147.182V183.727M220.474 147.182H257.053M220.474 147.182V183.727M257.053 147.182H293.632M257.053 147.182V183.727M293.632 147.182H330.211M293.632 147.182V183.727M330.211 147.182H366.789M330.211 147.182V183.727M366.789 147.182H403.368M366.789 147.182V183.727M403.368 147.182H439.947M403.368 147.182V183.727M439.947 147.182H476.526M439.947 147.182V183.727M476.526 147.182H513.105M476.526 147.182V183.727M513.105 147.182H549.684M513.105 147.182V183.727M549.684 147.182H586.263M549.684 147.182V183.727M586.263 147.182H622.842M586.263 147.182V183.727M622.842 147.182V183.727M622.842 147.182H659.421M37.5789 183.727H1M37.5789 183.727H74.1579M37.5789 183.727V220.273M1 183.727V220.273M74.1579 183.727H110.737M74.1579 183.727V220.273M110.737 183.727H147.316M110.737 183.727V220.273M147.316 183.727H183.895M147.316 183.727V220.273M183.895 183.727H220.474M183.895 183.727V220.273M220.474 183.727H257.053M220.474 183.727V220.273M257.053 183.727H293.632M257.053 183.727V220.273M293.632 183.727H330.211M293.632 183.727V220.273M330.211 183.727H366.789M330.211 183.727V220.273M366.789 183.727H403.368M366.789 183.727V220.273M403.368 183.727H439.947M403.368 183.727V220.273M439.947 183.727H476.526M439.947 183.727V220.273M476.526 183.727H513.105M476.526 183.727V220.273M513.105 183.727H549.684M513.105 183.727V220.273M549.684 183.727H586.263M549.684 183.727V220.273M586.263 183.727H622.842M586.263 183.727V220.273M622.842 183.727V220.273M622.842 183.727H659.421M37.5789 220.273H1M37.5789 220.273H74.1579M37.5789 220.273V256.818M1 220.273V256.818M74.1579 220.273H110.737M74.1579 220.273V256.818M110.737 220.273H147.316M110.737 220.273V256.818M147.316 220.273H183.895M147.316 220.273V256.818M183.895 220.273H220.474M183.895 220.273V256.818M220.474 220.273H257.053M220.474 220.273V256.818M257.053 220.273H293.632M257.053 220.273V256.818M293.632 220.273H330.211M293.632 220.273V256.818M330.211 220.273H366.789M330.211 220.273V256.818M366.789 220.273H403.368M366.789 220.273V256.818M403.368 220.273H439.947M403.368 220.273V256.818M439.947 220.273H476.526M439.947 220.273V256.818M476.526 220.273H513.105M476.526 220.273V256.818M513.105 220.273H549.684M513.105 220.273V256.818M549.684 220.273H586.263M549.684 220.273V256.818M586.263 220.273H622.842M586.263 220.273V256.818M622.842 220.273V256.818M622.842 220.273H659.421M37.5789 256.818H1M37.5789 256.818H74.1579M37.5789 256.818V293.364M1 256.818V293.364M74.1579 256.818H110.737M74.1579 256.818V293.364M110.737 256.818H147.316M110.737 256.818V293.364M147.316 256.818H183.895M147.316 256.818V293.364M183.895 256.818H220.474M183.895 256.818V293.364M220.474 256.818H257.053M220.474 256.818V293.364M257.053 256.818H293.632M257.053 256.818V293.364M293.632 256.818H330.211M293.632 256.818V293.364M330.211 256.818H366.789M330.211 256.818V293.364M366.789 256.818H403.368M366.789 256.818V293.364M403.368 256.818H439.947M403.368 256.818V293.364M439.947 256.818H476.526M439.947 256.818V293.364M476.526 256.818H513.105M476.526 256.818V293.364M513.105 256.818H549.684M513.105 256.818V293.364M549.684 256.818H586.263M549.684 256.818V293.364M586.263 256.818H622.842M586.263 256.818V293.364M622.842 256.818V293.364M622.842 256.818H659.421M37.5789 293.364H1M37.5789 293.364H74.1579M37.5789 293.364V329.909M1 293.364V329.909M74.1579 293.364H110.737M74.1579 293.364V329.909M110.737 293.364H147.316M110.737 293.364V329.909M147.316 293.364H183.895M147.316 293.364V329.909M183.895 293.364H220.474M183.895 293.364V329.909M220.474 293.364H257.053M220.474 293.364V329.909M257.053 293.364H293.632M257.053 293.364V329.909M293.632 293.364H330.211M293.632 293.364V329.909M330.211 293.364H366.789M330.211 293.364V329.909M366.789 293.364H403.368M366.789 293.364V329.909M403.368 293.364H439.947M403.368 293.364V329.909M439.947 293.364H476.526M439.947 293.364V329.909M476.526 293.364H513.105M476.526 293.364V329.909M513.105 293.364H549.684M513.105 293.364V329.909M549.684 293.364H586.263M549.684 293.364V329.909M586.263 293.364H622.842M586.263 293.364V329.909M622.842 293.364H659.421M622.842 293.364V329.909M659.421 1H696V37.5454M659.421 1V37.5454M659.421 37.5454H696M659.421 37.5454V74.0909M696 37.5454V74.0909M659.421 74.0909H696M659.421 74.0909V110.636M696 74.0909V110.636M659.421 110.636H696M659.421 110.636V147.182M696 110.636V147.182M659.421 147.182H696M659.421 147.182V183.727M696 147.182V183.727M659.421 183.727H696M659.421 183.727V220.273M696 183.727V220.273M659.421 220.273H696M659.421 220.273V256.818M696 220.273V256.818M659.421 256.818H696M659.421 256.818V293.364M696 256.818V293.364M659.421 293.364H696M659.421 293.364V329.909M696 293.364V329.909M37.5789 329.909H1M37.5789 329.909H74.1579M37.5789 329.909V366.455M1 329.909V366.455M74.1579 329.909H110.737M74.1579 329.909V366.455M110.737 329.909H147.316M110.737 329.909V366.455M147.316 329.909H183.895M147.316 329.909V366.455M183.895 329.909H220.474M183.895 329.909V366.455M220.474 329.909H257.053M220.474 329.909V366.455M257.053 329.909H293.632M257.053 329.909V366.455M293.632 329.909H330.211M293.632 329.909V366.455M330.211 329.909H366.789M330.211 329.909V366.455M366.789 329.909H403.368M366.789 329.909V366.455M403.368 329.909H439.947M403.368 329.909V366.455M439.947 329.909H476.526M439.947 329.909V366.455M476.526 329.909H513.105M476.526 329.909V366.455M513.105 329.909H549.684M513.105 329.909V366.455M549.684 329.909H586.263M549.684 329.909V366.455M586.263 329.909H622.842M586.263 329.909V366.455M622.842 329.909V366.455M622.842 329.909H659.421M37.5789 366.455H1M37.5789 366.455H74.1579M37.5789 366.455V403M1 366.455V403H37.5789M74.1579 366.455H110.737M74.1579 366.455V403M110.737 366.455H147.316M110.737 366.455V403M147.316 366.455H183.895M147.316 366.455V403M183.895 366.455H220.474M183.895 366.455V403M220.474 366.455H257.053M220.474 366.455V403M257.053 366.455H293.632M257.053 366.455V403M293.632 366.455H330.211M293.632 366.455V403M330.211 366.455H366.789M330.211 366.455V403M366.789 366.455H403.368M366.789 366.455V403M403.368 366.455H439.947M403.368 366.455V403M439.947 366.455H476.526M439.947 366.455V403M476.526 366.455H513.105M476.526 366.455V403M513.105 366.455H549.684M513.105 366.455V403M549.684 366.455H586.263M549.684 366.455V403M586.263 366.455H622.842M586.263 366.455V403M622.842 366.455V403M622.842 366.455H659.421M37.5789 403H74.1579M74.1579 403H110.737M110.737 403H147.316M147.316 403H183.895M183.895 403H220.474M220.474 403H257.053M257.053 403H293.632M293.632 403H330.211M330.211 403H366.789M366.789 403H403.368M403.368 403H439.947M439.947 403H476.526M476.526 403H513.105M513.105 403H549.684M549.684 403H586.263M586.263 403H622.842M622.842 403H659.421M659.421 329.909H696M659.421 329.909V366.455M696 329.909V366.455M659.421 366.455H696M659.421 366.455V403M696 366.455V403H659.421" stroke="url(#paint0_radial_210_2955)" stroke-opacity="0.12" stroke-width="0.5"></path> <defs> <radialGradient id="paint0_radial_210_2955" cx="0" cy="0" r="1" gradientUnits="userSpaceOnUse" gradientTransform="translate(348.099 201.663) rotate(90) scale(201.338 291.087)"> <stop stop-color="white"></stop> <stop offset="1" stop-color="white" stop-opacity="0"></stop> </radialGradient> </defs> </svg> 