<?xml version="1.0" encoding="UTF-8"?> <svg xmlns="http://www.w3.org/2000/svg" width="107" height="32" viewBox="0 0 107 32" fill="none"> <rect x="0.25" y="0.25" width="106.5" height="31.5" rx="15.75" stroke="url(#paint0_linear_193_2486)" stroke-width="0.5"></rect> <path d="M15.683 22L12.5012 10.3636H13.933L16.3649 19.8409H16.4785L18.9558 10.3636H20.5467L23.0239 19.8409H23.1376L25.5694 10.3636H27.0012L23.8194 22H22.3649L19.7967 12.7273H19.7058L17.1376 22H15.683ZM29.276 16.75V22H27.9351V10.3636H29.276V14.6364H29.3896C29.5942 14.1856 29.901 13.8277 30.3101 13.5625C30.723 13.2936 31.2722 13.1591 31.9578 13.1591C32.5525 13.1591 33.0733 13.2784 33.5203 13.517C33.9673 13.7519 34.3139 14.1136 34.5601 14.6023C34.8101 15.0871 34.9351 15.7045 34.9351 16.4545V22H33.5942V16.5455C33.5942 15.8523 33.4143 15.3163 33.0544 14.9375C32.6983 14.5549 32.204 14.3636 31.5714 14.3636C31.1321 14.3636 30.7381 14.4564 30.3896 14.642C30.0449 14.8277 29.7722 15.0985 29.5714 15.4545C29.3745 15.8106 29.276 16.2424 29.276 16.75ZM40.2937 22.1818C39.5058 22.1818 38.8145 21.9943 38.2198 21.6193C37.6289 21.2443 37.1668 20.7197 36.8334 20.0455C36.5039 19.3712 36.3391 18.5833 36.3391 17.6818C36.3391 16.7727 36.5039 15.9792 36.8334 15.3011C37.1668 14.6231 37.6289 14.0966 38.2198 13.7216C38.8145 13.3466 39.5058 13.1591 40.2937 13.1591C41.0815 13.1591 41.7709 13.3466 42.3618 13.7216C42.9565 14.0966 43.4187 14.6231 43.7482 15.3011C44.0815 15.9792 44.2482 16.7727 44.2482 17.6818C44.2482 18.5833 44.0815 19.3712 43.7482 20.0455C43.4187 20.7197 42.9565 21.2443 42.3618 21.6193C41.7709 21.9943 41.0815 22.1818 40.2937 22.1818ZM40.2937 20.9773C40.8921 20.9773 41.3846 20.8239 41.7709 20.517C42.1573 20.2102 42.4433 19.8068 42.6289 19.3068C42.8145 18.8068 42.9073 18.2652 42.9073 17.6818C42.9073 17.0985 42.8145 16.5549 42.6289 16.0511C42.4433 15.5473 42.1573 15.1402 41.7709 14.8295C41.3846 14.5189 40.8921 14.3636 40.2937 14.3636C39.6952 14.3636 39.2028 14.5189 38.8164 14.8295C38.43 15.1402 38.144 15.5473 37.9584 16.0511C37.7728 16.5549 37.68 17.0985 37.68 17.6818C37.68 18.2652 37.7728 18.8068 37.9584 19.3068C38.144 19.8068 38.43 20.2102 38.8164 20.517C39.2028 20.8239 39.6952 20.9773 40.2937 20.9773ZM49.5151 22V13.2727H50.856V22H49.5151ZM50.1969 11.8182C49.9355 11.8182 49.7102 11.7292 49.5208 11.5511C49.3352 11.3731 49.2424 11.1591 49.2424 10.9091C49.2424 10.6591 49.3352 10.4451 49.5208 10.267C49.7102 10.089 49.9355 10 50.1969 10C50.4583 10 50.6818 10.089 50.8674 10.267C51.0568 10.4451 51.1514 10.6591 51.1514 10.9091C51.1514 11.1591 51.0568 11.3731 50.8674 11.5511C50.6818 11.7292 50.4583 11.8182 50.1969 11.8182ZM58.8538 15.2273L57.6492 15.5682C57.5735 15.3674 57.4617 15.1723 57.314 14.983C57.1701 14.7898 56.9731 14.6307 56.7231 14.5057C56.4731 14.3807 56.153 14.3182 55.7629 14.3182C55.2288 14.3182 54.7837 14.4413 54.4276 14.6875C54.0754 14.9299 53.8992 15.2386 53.8992 15.6136C53.8992 15.947 54.0204 16.2102 54.2629 16.4034C54.5053 16.5966 54.8841 16.7576 55.3992 16.8864L56.6947 17.2045C57.475 17.3939 58.0564 17.6837 58.439 18.0739C58.8216 18.4602 59.0129 18.9583 59.0129 19.5682C59.0129 20.0682 58.8689 20.5152 58.5811 20.9091C58.297 21.303 57.8992 21.6136 57.3879 21.8409C56.8765 22.0682 56.2818 22.1818 55.6038 22.1818C54.7136 22.1818 53.9769 21.9886 53.3936 21.6023C52.8102 21.2159 52.4409 20.6515 52.2856 19.9091L53.5583 19.5909C53.6795 20.0606 53.9087 20.4129 54.2458 20.6477C54.5867 20.8826 55.0318 21 55.5811 21C56.2061 21 56.7023 20.8674 57.0697 20.6023C57.4409 20.3333 57.6265 20.0114 57.6265 19.6364C57.6265 19.3333 57.5204 19.0795 57.3083 18.875C57.0962 18.6667 56.7704 18.5114 56.3311 18.4091L54.8765 18.0682C54.0773 17.8788 53.4901 17.5852 53.1151 17.1875C52.7439 16.786 52.5583 16.2841 52.5583 15.6818C52.5583 15.1894 52.6966 14.7538 52.9731 14.375C53.2534 13.9962 53.6341 13.6989 54.1151 13.483C54.6 13.267 55.1492 13.1591 55.7629 13.1591C56.6265 13.1591 57.3045 13.3485 57.797 13.7273C58.2932 14.1061 58.6454 14.6061 58.8538 15.2273ZM64.2513 22V13.2727H65.5922V22H64.2513ZM64.9332 11.8182C64.6718 11.8182 64.4464 11.7292 64.257 11.5511C64.0714 11.3731 63.9786 11.1591 63.9786 10.9091C63.9786 10.6591 64.0714 10.4451 64.257 10.267C64.4464 10.089 64.6718 10 64.9332 10C65.1945 10 65.418 10.089 65.6036 10.267C65.793 10.4451 65.8877 10.6591 65.8877 10.9091C65.8877 11.1591 65.793 11.3731 65.6036 11.5511C65.418 11.7292 65.1945 11.8182 64.9332 11.8182ZM71.2037 13.2727V14.4091H66.6809V13.2727H71.2037ZM67.9991 11.1818H69.34V19.5C69.34 19.8788 69.395 20.1629 69.5048 20.3523C69.6184 20.5379 69.7624 20.6629 69.9366 20.7273C70.1147 20.7879 70.3022 20.8182 70.4991 20.8182C70.6468 20.8182 70.7681 20.8106 70.8628 20.7955C70.9575 20.7765 71.0332 20.7614 71.09 20.75L71.3628 21.9545C71.2718 21.9886 71.145 22.0227 70.9821 22.0568C70.8192 22.0947 70.6128 22.1136 70.3628 22.1136C69.984 22.1136 69.6128 22.0322 69.2491 21.8693C68.8893 21.7064 68.59 21.4583 68.3514 21.125C68.1165 20.7917 67.9991 20.3712 67.9991 19.8636V11.1818ZM80.3271 13.2727V14.4091H75.6225V13.2727H80.3271ZM77.0316 22V12.0682C77.0316 11.5682 77.149 11.1515 77.3839 10.8182C77.6187 10.4848 77.9237 10.2348 78.2987 10.0682C78.6737 9.90151 79.0695 9.81818 79.4862 9.81818C79.8157 9.81818 80.0846 9.8447 80.293 9.89773C80.5013 9.95076 80.6566 10 80.7589 10.0455L80.3725 11.2045C80.3043 11.1818 80.2096 11.1534 80.0884 11.1193C79.971 11.0852 79.8157 11.0682 79.6225 11.0682C79.1793 11.0682 78.8593 11.1799 78.6623 11.4034C78.4691 11.6269 78.3725 11.9545 78.3725 12.3864V22H77.0316ZM84.7524 22.1818C83.9645 22.1818 83.2733 21.9943 82.6786 21.6193C82.0876 21.2443 81.6255 20.7197 81.2922 20.0455C80.9626 19.3712 80.7979 18.5833 80.7979 17.6818C80.7979 16.7727 80.9626 15.9792 81.2922 15.3011C81.6255 14.6231 82.0876 14.0966 82.6786 13.7216C83.2733 13.3466 83.9645 13.1591 84.7524 13.1591C85.5403 13.1591 86.2297 13.3466 86.8206 13.7216C87.4153 14.0966 87.8774 14.6231 88.207 15.3011C88.5403 15.9792 88.707 16.7727 88.707 17.6818C88.707 18.5833 88.5403 19.3712 88.207 20.0455C87.8774 20.7197 87.4153 21.2443 86.8206 21.6193C86.2297 21.9943 85.5403 22.1818 84.7524 22.1818ZM84.7524 20.9773C85.3509 20.9773 85.8433 20.8239 86.2297 20.517C86.6161 20.2102 86.902 19.8068 87.0876 19.3068C87.2733 18.8068 87.3661 18.2652 87.3661 17.6818C87.3661 17.0985 87.2733 16.5549 87.0876 16.0511C86.902 15.5473 86.6161 15.1402 86.2297 14.8295C85.8433 14.5189 85.3509 14.3636 84.7524 14.3636C84.1539 14.3636 83.6615 14.5189 83.2751 14.8295C82.8888 15.1402 82.6028 15.5473 82.4172 16.0511C82.2316 16.5549 82.1388 17.0985 82.1388 17.6818C82.1388 18.2652 82.2316 18.8068 82.4172 19.3068C82.6028 19.8068 82.8888 20.2102 83.2751 20.517C83.6615 20.8239 84.1539 20.9773 84.7524 20.9773ZM90.1138 22V13.2727H91.4093V14.5909H91.5002C91.6593 14.1591 91.9472 13.8087 92.3638 13.5398C92.7805 13.2708 93.2502 13.1364 93.7729 13.1364C93.8714 13.1364 93.9945 13.1383 94.1422 13.142C94.29 13.1458 94.4017 13.1515 94.4775 13.1591V14.5227C94.432 14.5114 94.3279 14.4943 94.165 14.4716C94.0059 14.4451 93.8373 14.4318 93.6593 14.4318C93.2351 14.4318 92.8563 14.5208 92.5229 14.6989C92.1934 14.8731 91.932 15.1155 91.7388 15.4261C91.5494 15.733 91.4547 16.0833 91.4547 16.4773V22H90.1138Z" fill="url(#paint1_linear_193_2486)"></path> <defs> <linearGradient id="paint0_linear_193_2486" x1="10.8609" y1="-15.1111" x2="8.68571" y2="54.6017" gradientUnits="userSpaceOnUse"> <stop stop-color="#D7D1FF"></stop> <stop offset="1" stop-color="#866DCD"></stop> </linearGradient> <linearGradient id="paint1_linear_193_2486" x1="12" y1="-5.99997" x2="103.227" y2="-2.84427" gradientUnits="userSpaceOnUse"> <stop stop-color="#E8E2FF"></stop> <stop offset="0.345" stop-color="#F3F2FF"></stop> <stop offset="1" stop-color="#E1C3FF"></stop> </linearGradient> </defs> </svg> 