<svg width="640" height="488" viewBox="0 0 640 488" fill="none" xmlns="http://www.w3.org/2000/svg">
<path d="M-53.9492 1H-98.002V45.0908M-53.9492 1H-9.89631M-53.9492 1V45.0908M-98.002 45.0908H-53.9492M-98.002 45.0908V89.1818M-9.89631 1H34.1567M-9.89631 1V45.0908M-53.9492 45.0908H-9.89631M-53.9492 45.0908V89.1818M34.1567 1H78.2096M34.1567 1V45.0908M-9.89631 45.0908H34.1567M-9.89631 45.0908V89.1818M78.2096 1H122.262M78.2096 1V45.0908M34.1567 45.0908H78.2096M34.1567 45.0908V89.1818M122.262 1H166.315M122.262 1V45.0908M78.2096 45.0908H122.262M78.2096 45.0908V89.1818M166.315 1H210.368M166.315 1V45.0908M122.262 45.0908H166.315M122.262 45.0908V89.1818M210.368 1H254.421M210.368 1V45.0908M166.315 45.0908H210.368M166.315 45.0908V89.1818M254.421 1H298.474M254.421 1V45.0908M210.368 45.0908H254.421M210.368 45.0908V89.1818M298.474 1H342.526M298.474 1V45.0908M254.421 45.0908H298.474M254.421 45.0908V89.1818M342.526 1H386.579M342.526 1V45.0908M298.474 45.0908H342.526M298.474 45.0908V89.1818M386.579 1H430.631M386.579 1V45.0908M342.526 45.0908H386.579M342.526 45.0908V89.1818M430.631 1H474.684M430.631 1V45.0908M386.579 45.0908H430.631M386.579 45.0908V89.1818M474.684 1H518.737M474.684 1V45.0908M430.631 45.0908H474.684M430.631 45.0908V89.1818M518.737 1H562.79M518.737 1V45.0908M474.684 45.0908H518.737M474.684 45.0908V89.1818M562.79 1H606.843M562.79 1V45.0908M518.737 45.0908H562.79M518.737 45.0908V89.1818M606.843 1H650.896M606.843 1V45.0908M562.79 45.0908H606.843M562.79 45.0908V89.1818M650.896 1V45.0908M650.896 1H694.949M606.843 45.0908H650.896M606.843 45.0908V89.1818M650.896 45.0908V89.1818M650.896 45.0908H694.949M694.949 1H739.002V45.0908M694.949 1V45.0908M-53.9492 89.1818H-98.002M-53.9492 89.1818H-9.89631M-53.9492 89.1818V133.272M-98.002 89.1818V133.272M-9.89631 89.1818H34.1567M-9.89631 89.1818V133.272M34.1567 89.1818H78.2096M34.1567 89.1818V133.272M78.2096 89.1818H122.262M78.2096 89.1818V133.272M122.262 89.1818H166.315M122.262 89.1818V133.272M166.315 89.1818H210.368M166.315 89.1818V133.272M210.368 89.1818H254.421M210.368 89.1818V133.272M254.421 89.1818H298.474M254.421 89.1818V133.272M298.474 89.1818H342.526M298.474 89.1818V133.272M342.526 89.1818H386.579M342.526 89.1818V133.272M386.579 89.1818H430.631M386.579 89.1818V133.272M430.631 89.1818H474.684M430.631 89.1818V133.272M474.684 89.1818H518.737M474.684 89.1818V133.272M518.737 89.1818H562.79M518.737 89.1818V133.272M562.79 89.1818H606.843M562.79 89.1818V133.272M606.843 89.1818H650.896M606.843 89.1818V133.272M650.896 89.1818V133.272M650.896 89.1818H694.949M694.949 45.0908H739.002M694.949 45.0908V89.1818M-53.9492 133.272H-98.002M-53.9492 133.272H-9.89631M-53.9492 133.272V177.364M-98.002 133.272V177.364M-9.89631 133.272H34.1567M-9.89631 133.272V177.364M34.1567 133.272H78.2096M34.1567 133.272V177.364M78.2096 133.272H122.262M78.2096 133.272V177.364M122.262 133.272H166.315M122.262 133.272V177.364M166.315 133.272H210.368M166.315 133.272V177.364M210.368 133.272H254.421M210.368 133.272V177.364M254.421 133.272H298.474M254.421 133.272V177.364M298.474 133.272H342.526M298.474 133.272V177.364M342.526 133.272H386.579M342.526 133.272V177.364M386.579 133.272H430.631M386.579 133.272V177.364M430.631 133.272H474.684M430.631 133.272V177.364M474.684 133.272H518.737M474.684 133.272V177.364M518.737 133.272H562.79M518.737 133.272V177.364M562.79 133.272H606.843M562.79 133.272V177.364M606.843 133.272H650.896M606.843 133.272V177.364M650.896 133.272V177.364M650.896 133.272H694.949M694.949 89.1818H739.002M694.949 89.1818V133.272M-53.9492 177.364H-98.002M-53.9492 177.364H-9.89631M-53.9492 177.364V221.454M-98.002 177.364V221.454M-9.89631 177.364H34.1567M-9.89631 177.364V221.454M34.1567 177.364H78.2096M34.1567 177.364V221.454M78.2096 177.364H122.262M78.2096 177.364V221.454M122.262 177.364H166.315M122.262 177.364V221.454M166.315 177.364H210.368M166.315 177.364V221.454M210.368 177.364H254.421M210.368 177.364V221.454M254.421 177.364H298.474M254.421 177.364V221.454M298.474 177.364H342.526M298.474 177.364V221.454M342.526 177.364H386.579M342.526 177.364V221.454M386.579 177.364H430.631M386.579 177.364V221.454M430.631 177.364H474.684M430.631 177.364V221.454M474.684 177.364H518.737M474.684 177.364V221.454M518.737 177.364H562.79M518.737 177.364V221.454M562.79 177.364H606.843M562.79 177.364V221.454M606.843 177.364H650.896M606.843 177.364V221.454M650.896 177.364V221.454M650.896 177.364H694.949M694.949 133.272H739.002M694.949 133.272V177.364M-53.9492 221.454H-98.002M-53.9492 221.454H-9.89631M-53.9492 221.454V265.546M-98.002 221.454V265.546M-9.89631 221.454H34.1567M-9.89631 221.454V265.546M34.1567 221.454H78.2096M34.1567 221.454V265.546M78.2096 221.454H122.262M78.2096 221.454V265.546M122.262 221.454H166.315M122.262 221.454V265.546M166.315 221.454H210.368M166.315 221.454V265.546M210.368 221.454H254.421M210.368 221.454V265.546M254.421 221.454H298.474M254.421 221.454V265.546M298.474 221.454H342.526M298.474 221.454V265.546M342.526 221.454H386.579M342.526 221.454V265.546M386.579 221.454H430.631M386.579 221.454V265.546M430.631 221.454H474.684M430.631 221.454V265.546M474.684 221.454H518.737M474.684 221.454V265.546M518.737 221.454H562.79M518.737 221.454V265.546M562.79 221.454H606.843M562.79 221.454V265.546M606.843 221.454H650.896M606.843 221.454V265.546M650.896 221.454V265.546M650.896 221.454H694.949M694.949 177.364H739.002M694.949 177.364V221.454M-53.9492 265.546H-98.002M-53.9492 265.546H-9.89631M-53.9492 265.546V309.636M-98.002 265.546V309.636M-9.89631 265.546H34.1567M-9.89631 265.546V309.636M34.1567 265.546H78.2096M34.1567 265.546V309.636M78.2096 265.546H122.262M78.2096 265.546V309.636M122.262 265.546H166.315M122.262 265.546V309.636M166.315 265.546H210.368M166.315 265.546V309.636M210.368 265.546H254.421M210.368 265.546V309.636M254.421 265.546H298.474M254.421 265.546V309.636M298.474 265.546H342.526M298.474 265.546V309.636M342.526 265.546H386.579M342.526 265.546V309.636M386.579 265.546H430.631M386.579 265.546V309.636M430.631 265.546H474.684M430.631 265.546V309.636M474.684 265.546H518.737M474.684 265.546V309.636M518.737 265.546H562.79M518.737 265.546V309.636M562.79 265.546H606.843M562.79 265.546V309.636M606.843 265.546H650.896M606.843 265.546V309.636M650.896 265.546V309.636M650.896 265.546H694.949M694.949 221.454H739.002M694.949 221.454V265.546M-53.9492 309.636H-98.002M-53.9492 309.636H-9.89631M-53.9492 309.636V353.728M-98.002 309.636V353.728M-9.89631 309.636H34.1567M-9.89631 309.636V353.728M34.1567 309.636H78.2096M34.1567 309.636V353.728M78.2096 309.636H122.262M78.2096 309.636V353.728M122.262 309.636H166.315M122.262 309.636V353.728M166.315 309.636H210.368M166.315 309.636V353.728M210.368 309.636H254.421M210.368 309.636V353.728M254.421 309.636H298.474M254.421 309.636V353.728M298.474 309.636H342.526M298.474 309.636V353.728M342.526 309.636H386.579M342.526 309.636V353.728M386.579 309.636H430.631M386.579 309.636V353.728M430.631 309.636H474.684M430.631 309.636V353.728M474.684 309.636H518.737M474.684 309.636V353.728M518.737 309.636H562.79M518.737 309.636V353.728M562.79 309.636H606.843M562.79 309.636V353.728M606.843 309.636H650.896M606.843 309.636V353.728M650.896 309.636V353.728M650.896 309.636H694.949M694.949 265.546H739.002M694.949 265.546V309.636M-53.9492 353.728H-98.002M-53.9492 353.728H-9.89631M-53.9492 353.728V397.818M-98.002 353.728V397.818M-9.89631 353.728H34.1567M-9.89631 353.728V397.818M34.1567 353.728H78.2096M34.1567 353.728V397.818M78.2096 353.728H122.262M78.2096 353.728V397.818M122.262 353.728H166.315M122.262 353.728V397.818M166.315 353.728H210.368M166.315 353.728V397.818M210.368 353.728H254.421M210.368 353.728V397.818M254.421 353.728H298.474M254.421 353.728V397.818M298.474 353.728H342.526M298.474 353.728V397.818M342.526 353.728H386.579M342.526 353.728V397.818M386.579 353.728H430.631M386.579 353.728V397.818M430.631 353.728H474.684M430.631 353.728V397.818M474.684 353.728H518.737M474.684 353.728V397.818M518.737 353.728H562.79M518.737 353.728V397.818M562.79 353.728H606.843M562.79 353.728V397.818M606.843 353.728H650.896M606.843 353.728V397.818M650.896 353.728H694.949M650.896 353.728V397.818M694.949 309.636H739.002M694.949 309.636V353.728M-53.9492 397.818H-98.002M-53.9492 397.818H-9.89631M-53.9492 397.818V441.91M-98.002 397.818V441.91M-9.89631 397.818H34.1567M-9.89631 397.818V441.91M34.1567 397.818H78.2096M34.1567 397.818V441.91M78.2096 397.818H122.262M78.2096 397.818V441.91M122.262 397.818H166.315M122.262 397.818V441.91M166.315 397.818H210.368M166.315 397.818V441.91M210.368 397.818H254.421M210.368 397.818V441.91M254.421 397.818H298.474M254.421 397.818V441.91M298.474 397.818H342.526M298.474 397.818V441.91M342.526 397.818H386.579M342.526 397.818V441.91M386.579 397.818H430.631M386.579 397.818V441.91M430.631 397.818H474.684M430.631 397.818V441.91M474.684 397.818H518.737M474.684 397.818V441.91M518.737 397.818H562.79M518.737 397.818V441.91M562.79 397.818H606.843M562.79 397.818V441.91M606.843 397.818H650.896M606.843 397.818V441.91M694.949 353.728H739.002M694.949 353.728V397.818M650.896 397.818V441.91M650.896 397.818H694.949M739.002 45.0908V89.1818M739.002 89.1818V133.272M739.002 133.272V177.364M739.002 177.364V221.454M739.002 221.454V265.546M739.002 265.546V309.636M739.002 309.636V353.728M739.002 353.728V397.818M694.949 397.818H739.002M694.949 397.818V441.91M739.002 397.818V441.91M-53.9492 441.91H-98.002M-53.9492 441.91H-9.89631M-53.9492 441.91V486M-98.002 441.91V486H-53.9492M-9.89631 441.91H34.1567M-9.89631 441.91V486M34.1567 441.91H78.2096M34.1567 441.91V486M78.2096 441.91H122.262M78.2096 441.91V486M122.262 441.91H166.315M122.262 441.91V486M166.315 441.91H210.368M166.315 441.91V486M210.368 441.91H254.421M210.368 441.91V486M254.421 441.91H298.474M254.421 441.91V486M298.474 441.91H342.526M298.474 441.91V486M342.526 441.91H386.579M342.526 441.91V486M386.579 441.91H430.631M386.579 441.91V486M430.631 441.91H474.684M430.631 441.91V486M474.684 441.91H518.737M474.684 441.91V486M518.737 441.91H562.79M518.737 441.91V486M562.79 441.91H606.843M562.79 441.91V486M606.843 441.91H650.896M606.843 441.91V486M650.896 441.91V486M650.896 441.91H694.949M-53.9492 486H-9.89631M-9.89631 486H34.1567M34.1567 486H78.2096M78.2096 486H122.262M122.262 486H166.315M166.315 486H210.368M210.368 486H254.421M254.421 486H298.474M298.474 486H342.526M342.526 486H386.579M386.579 486H430.631M430.631 486H474.684M474.684 486H518.737M518.737 486H562.79M562.79 486H606.843M606.843 486H650.896M650.896 486H694.949M694.949 441.91H739.002M694.949 441.91V486M694.949 486H739.002V441.91" stroke="url(#paint0_radial_28_12803)" stroke-opacity="0.16" stroke-width="0.5"/>
<rect opacity="0.05" x="429.37" y="89" width="43.9477" height="44" fill="white"/>
<rect opacity="0.04" x="165.684" y="310" width="43.9477" height="44" fill="white"/>
<defs>
<radialGradient id="paint0_radial_28_12803" cx="0" cy="0" r="1" gradientUnits="userSpaceOnUse" gradientTransform="translate(320.017 243.093) rotate(90) scale(242.908 350.562)">
<stop stop-color="white"/>
<stop offset="1" stop-color="white" stop-opacity="0"/>
</radialGradient>
</defs>
</svg>
